<svg width="1200" height="630" viewBox="0 0 1200 630" fill="none" xmlns="http://www.w3.org/2000/svg">
  <!-- Фон -->
  <rect width="1200" height="630" fill="url(#gradient)"/>
  
  <!-- Градиент -->
  <defs>
    <linearGradient id="gradient" x1="0%" y1="0%" x2="100%" y2="100%">
      <stop offset="0%" style="stop-color:#000000;stop-opacity:1" />
      <stop offset="100%" style="stop-color:#1a1a1a;stop-opacity:1" />
    </linearGradient>
  </defs>
  
  <!-- Логотип (центрирован, уменьшен) -->
  <g transform="translate(600, 200) scale(0.3)">
    <path d="M1116.13 624.908C1124.98 624.287 1133.5 623.918 1140.84 629.936C1148.82 636.486 1149.81 644.731 1148.91 654.322C1147.6 668.338 1145.69 682.248 1143.26 696.106C1127.05 788.49 1087.41 875.168 1028.14 947.865C936.211 1061.21 803.021 1133.41 657.867 1148.59C639.65 1150.95 624.047 1144.37 624.773 1123.58C628.611 995.877 623.373 829.893 718.629 731.279C810.85 635.807 991.4 626.332 1116.13 624.908ZM674.525 1096.66C680.502 1096.01 685.582 1095.13 691.471 1094.1C716.625 1088.99 737.514 1084 762.146 1075.64C867.744 1039.66 958.365 969.563 1019.74 876.404C1059.92 815.297 1086.3 746.168 1097.03 673.822C1092.63 673.764 1083.15 673.576 1079.03 674.08C975.656 678.862 823.459 688.061 748.793 768.733C692.543 829.506 682.389 936.932 677.426 1015.66C676.002 1038.16 673.922 1074.34 674.525 1096.66Z" fill="white"/>
    <path d="M647.244 50.5581C653.666 50.2364 679.6 53.9872 686.221 55.0307C759.78 66.5414 830.215 92.9502 893.203 132.639C1017.72 210.835 1105.9 335.473 1138.2 478.918C1143.16 500.978 1148.36 530.566 1149.17 553.552C1149.58 564.998 1139.32 573.07 1128.2 575.37C1100.63 575.597 1065.89 574.295 1038.06 572.521C944.537 566.56 837.164 554.311 757.658 501.151C689.203 455.377 656.69 384.687 641.584 305.87C637.758 285.73 634.782 265.437 632.655 245.047C628.36 200.448 625.91 155.691 625.319 110.889C625.131 100.094 625.032 89.1135 624.762 78.3287C624.369 62.707 631.202 52.8472 647.244 50.5581ZM1097.01 526.211C1077.49 393.554 1005.63 274.249 897.504 194.959C842.66 154.747 780.246 126.051 714.018 110.598C702.223 107.879 686.502 104.561 674.485 103.265C674.83 139.461 676.453 175.633 679.354 211.714C685.5 285.892 697.746 380.817 753.463 436.185C819.252 501.56 933.451 515.607 1021.68 522.768C1043.56 524.543 1073.97 526.39 1095.6 526.227L1097.01 526.211Z" fill="white"/>
    <path d="M544.406 51.2278C552.434 49.9408 560.644 51.6548 566.59 57.4265C572.155 62.8278 573.487 68.901 573.6 76.3219C573.844 90.883 573.218 105.578 572.745 120.118C569.045 233.854 566.19 378.018 482.734 465.738C386.962 566.402 210.844 572.36 80.4178 575.38C72.2158 575.565 65.3322 575.228 58.7035 569.629C54.3539 565.954 50.7455 559.267 50.8245 553.583C51.0575 536.817 54.4655 515.732 57.5013 499.355C75.2006 403.616 118.014 314.298 181.563 240.537C256.171 153.613 355.981 92.0625 467.149 64.4244C489.537 58.8668 521.34 52.8796 544.406 51.2278ZM107.776 526.218C131.625 525.99 163.277 524.048 187.205 521.977C272.609 514.081 381.859 499.894 445.358 435.993C507.797 373.159 515.455 262.349 521.338 179.123C521.952 170.447 525.005 105.873 523.5 103.723C522.164 103.736 522.125 103.681 520.831 103.933C394.795 122.381 274.647 195.558 198.631 297.513C155.896 354.26 125.678 419.422 109.972 488.702C108.443 495.456 101.96 520.088 102 526.218C103.895 526.465 105.804 526.246 107.776 526.218Z" fill="white"/>
    <path d="M71.7946 624.797C75.404 624.474 87.2159 624.92 91.2624 624.978C106.983 625.072 122.7 625.512 138.402 626.303C229.759 630.539 334.017 640.611 415.907 683.736C482.576 718.851 523.401 774.885 545.107 846.34C552.449 871.066 557.959 896.297 561.594 921.826C569.24 973.857 570.95 1025.98 572.682 1078.42C573.101 1091.12 576.331 1127.17 570.647 1137.32C566.82 1144.15 560.51 1147.31 553.24 1149.2C543.368 1149.54 520.196 1145.95 510.311 1144.37C433.128 1131.8 359.534 1102.83 294.492 1059.42C172.59 978.24 87.9002 851.988 59.0317 708.41C55.2527 689.572 51.1768 665.724 50.8735 646.254C50.6956 634.84 60.6049 626.736 71.7946 624.797ZM524.025 1096.62C524.063 1067.18 522.208 1028.98 519.968 999.445C514.1 922.078 502.813 821.496 445.096 763.892C380.673 699.597 269.322 684.902 182.745 677.654C160.251 675.773 128.534 673.793 106.149 673.769C105.127 673.763 104.104 673.769 103.082 673.787C105.461 693.211 110.091 713.572 115.189 732.445C143.659 836.859 205.124 929.273 290.414 995.9C358.323 1049.01 438.787 1083.7 524.025 1096.62Z" fill="white"/>
  </g>
  
  <!-- Основной текст -->
  <text x="600" y="380" font-family="Arial, sans-serif" font-size="64" font-weight="bold" fill="white" text-anchor="middle">
    Рейтинг блогеров Беларуси
  </text>
  
  <!-- Подзаголовок -->
  <text x="600" y="440" font-family="Arial, sans-serif" font-size="36" fill="#cccccc" text-anchor="middle">
    Каталог инфлюенсеров для сотрудничества
  </text>
  
  <!-- Домен -->
  <text x="600" y="520" font-family="Arial, sans-serif" font-size="28" fill="#999999" text-anchor="middle">
    zorki.pro
  </text>
</svg>
